<svg version="1.2" xmlns="http://www.w3.org/2000/svg" viewBox="0 0 48 48" width="48" height="48">
	<style>
		.s0 { fill: #545469 } 
		.s1 { fill: #dfdfff } 
		.s2 { fill: #e9e9ff } 
		.s3 { fill: #707070 } 
		.s4 { fill: #f6f6f6 } 
		.s5 { fill: #b2b2c1 } 
		.s6 { fill: #747474 } 
		.s7 { fill: #eeeeff } 
		.s8 { fill: #646464 } 
	</style>
	<path class="s0" d="m18.81 4.49q0.89 1.05 1.79 2.14c3.99 3.42 8.55 2.95 13.55 3.09 10.53 0.39 10.53 0.39 12.11 1.98q0.18 3.23 0.15 6.46-0.02 1.76-0.02 3.56-0.01 2.22-0.04 4.53c-0.03 4.72-0.06 9.46-0.09 14.36-14.78 0-29.55 0-44.79 0-0.14-4.63-0.3-9.24-0.45-14q-0.09-2.16-0.2-4.36c-0.1-6.57-0.03-9.62 3.96-15.03 5.07-3.53 7.99-3.63 14.03-2.73z"/>
	<path class="s1" d="m2.92 13.15c3.82 0 7.63 0 11.55 0q0.83 4.32 1.46 8.68-0.72 0.7-1.46 1.44-0.09 4.33 0 8.67c3.74 2.05 3.74 2.05 8.67 2.89 4.16-1.45 7.82-3.48 11.57-5.79q0-4.26 0-8.67-2.06-0.66-4.17-1.35c-4.5-1.53-4.5-1.53-7.4-2.98q0.01-1.41 0-2.88c7.16 0 14.31 0 21.68 0 0 8.58 0 17.16 0 26-13.83 0-27.66 0-41.9 0 0-8.59 0-17.17 0-26z"/>
	<path class="s2" d="m23.14 13.15c7.16 0 14.31 0 21.68 0-0.48 7.62-0.95 15.26-1.44 23.12q-2.85 0-5.78 0c-0.96-5.25-1.92-10.49-2.89-15.9q-2.05-0.66-4.17-1.35c-4.5-1.53-4.5-1.53-7.4-2.99q0-1.41 0-2.88z"/>
	<path class="s3" d="m31.82 18.93q2.14 0.7 4.33 1.44 0 4.28 0 8.67c-11.35 7.51-11.35 7.51-18.06 6.33-3.61-1.99-3.61-1.99-5.05-3.44q-0.1-4.33 0-8.67 0.7 1.41 1.44 2.9c4.99 1.9 7.98 1.41 12.73-0.65q2.27-1.11 4.6-2.25 0.01-2.14 0-4.33z"/>
	<path class="s4" d="m31.82 18.93q0 2.85 0 5.77-2.75 1.21-5.51 2.36-1.53 0.66-3.11 1.32-1.44 0.33-2.94 0.66-2.14-1.41-4.33-2.88c1.44-4.34 1.44-4.34 3.88-6.06 4.13-1.44 7.65-1.37 12.01-1.17z"/>
	<path class="s5" d="m13.04 13.15c4.15-0.19 4.15-0.19 8.66 0q1.42 1.41 2.9 2.88 2.84 1.53 5.78 2.9-2.68 0.59-5.42 1.17c-4.84 1.2-8.19 2.62-11.92 6.06 0-4.29 0-8.58 0-13.01z"/>
	<path class="s6" d="m31.82 18.93q2.14 0.7 4.33 1.44 0 4.28 0 8.67c-6.85 1.63-6.85 1.63-10.11 0q0-1.41 0-2.88 2.85-1.43 5.78-2.9 0-2.14 0-4.33z"/>
	<path class="s7" d="m5.8 13.15q4.28 0 8.68 0 0.7 4.28 1.45 8.68c-4.33 0-4.33 0-7.5-2.72-2.62-3.07-2.62-3.07-2.63-5.96z"/>
	<path class="s8" d="m21.71 27.6c4.7 0.61 6.68 0.91 10.11 4.33-2.52 1.01-2.52 1.01-5.78 1.44-3.25-2.07-3.25-2.07-5.77-4.33q0.7-0.71 1.44-1.44z"/>
</svg>