<svg version="1.2" xmlns="http://www.w3.org/2000/svg" viewBox="0 0 32 32" width="32" height="32">
	<style>
		.s0 { fill: #545469 } 
		.s1 { fill: #dfdfff } 
		.s2 { fill: #e9e9ff } 
		.s3 { fill: #707070 } 
		.s4 { fill: #f6f6f6 } 
		.s5 { fill: #b2b2c1 } 
		.s6 { fill: #747474 } 
		.s7 { fill: #eeeeff } 
		.s8 { fill: #646464 } 
	</style>
	<path class="s0" d="m12.54 2.99q0.59 0.7 1.19 1.43c2.66 2.28 5.7 1.97 9.04 2.06 7.02 0.26 7.02 0.26 8.07 1.32q0.12 2.15 0.1 4.31-0.01 1.17-0.01 2.37-0.01 1.48-0.03 3.02c-0.02 3.15-0.04 6.31-0.06 9.57-9.85 0-19.7 0-29.86 0-0.09-3.08-0.2-6.16-0.3-9.33q-0.06-1.44-0.13-2.91c-0.07-4.38-0.02-6.41 2.64-10.02 3.38-2.35 5.32-2.42 9.35-1.82z"/>
	<path class="s1" d="m1.95 8.77c2.54 0 5.08 0 7.7 0q0.55 2.88 0.97 5.78-0.48 0.47-0.97 0.96-0.06 2.89 0 5.78c2.49 1.37 2.49 1.37 5.78 1.93 2.77-0.97 5.21-2.32 7.71-3.86q0-2.84 0-5.78-1.37-0.44-2.78-0.9c-3-1.02-3-1.02-4.93-1.99q0-0.94 0-1.92c4.77 0 9.54 0 14.45 0 0 5.72 0 11.44 0 17.34-9.22 0-18.44 0-27.93 0 0-5.73 0-11.45 0-17.34z"/>
	<path class="s2" d="m15.43 8.77c4.77 0 9.54 0 14.45 0-0.32 5.08-0.63 10.17-0.96 15.41q-1.9 0-3.85 0c-0.64-3.5-1.28-6.99-1.93-10.6q-1.37-0.44-2.78-0.9c-3-1.02-3-1.02-4.93-1.99q0-0.94 0-1.92z"/>
	<path class="s3" d="m21.21 12.62q1.43 0.47 2.89 0.96 0 2.85 0 5.78c-7.57 5.01-7.57 5.01-12.04 4.22-2.41-1.33-2.41-1.33-3.37-2.29q-0.06-2.89 0-5.78 0.47 0.94 0.96 1.93c3.33 1.27 5.32 0.94 8.49-0.43q1.51-0.74 3.07-1.5 0-1.43 0-2.89z"/>
	<path class="s4" d="m21.21 12.62q0 1.9 0 3.85-1.83 0.8-3.67 1.57-1.02 0.44-2.07 0.88-0.96 0.22-1.96 0.44-1.43-0.94-2.89-1.92c0.96-2.89 0.96-2.89 2.59-4.04 2.75-0.96 5.1-0.91 8-0.78z"/>
	<path class="s5" d="m8.69 8.77c2.77-0.13 2.77-0.13 5.78 0q0.94 0.94 1.93 1.92 1.89 1.02 3.85 1.93-1.78 0.39-3.61 0.78c-3.23 0.8-5.46 1.75-7.95 4.04 0-2.86 0-5.72 0-8.67z"/>
	<path class="s6" d="m21.21 12.62q1.43 0.47 2.89 0.96 0 2.85 0 5.78c-4.57 1.09-4.57 1.09-6.74 0q0-0.94 0-1.92 1.9-0.95 3.85-1.93 0-1.43 0-2.89z"/>
	<path class="s7" d="m3.87 8.77q2.85 0 5.78 0 0.47 2.85 0.97 5.78c-2.89 0-2.89 0-5-1.81-1.75-2.05-1.75-2.05-1.75-3.97z"/>
	<path class="s8" d="m14.47 18.4c3.14 0.41 4.46 0.61 6.74 2.89-1.68 0.67-1.68 0.67-3.85 0.96-2.17-1.38-2.17-1.38-3.85-2.89q0.47-0.47 0.96-0.96z"/>
</svg>